<svg class="recharts-surface" width="899" height="290" viewBox="0 0 899 290" version="1.1" xmlns="http://www.w3.org/2000/svg"><defs><clipPath id="recharts23-clip"><rect x="0" y="-25" height="315" width="899"></rect></clipPath></defs><defs><linearGradient id="colorPv2" x1="0" y1="0" x2="0" y2="1"><stop offset="10%" stop-color="var(--alternate)" stop-opacity="0.7"></stop><stop offset="90%" stop-color="var(--alternate)" stop-opacity="0"></stop></linearGradient></defs><g class="recharts-layer recharts-area"><g class="recharts-layer"><defs><clipPath id="animationClipPath-recharts-area-54"><rect x="-5.684341886080802e-14" y="0" width="899" height="292"></rect></clipPath></defs><g class="recharts-layer" clip-path="url(#animationClipPath-recharts-area-54)"><g class="recharts-layer"><path stroke="none" stroke-width="2" fill-opacity="1" fill="url(#colorPv2)" width="899" height="315" class="recharts-curve recharts-area-area" d="M-5.684341886080802e-14,80C27.24242424242419,106.25,54.48484848484843,132.5,81.72727272727268,132.5C108.96969696969693,132.5,136.21212121212116,39.05000000000001,163.4545454545454,39.05000000000001C190.69696969696966,39.05000000000001,217.93939393939388,119.72499999999998,245.18181818181813,144.04999999999998C272.4242424242424,168.375,299.66666666666663,185,326.9090909090909,185C354.1515151515151,185,381.3939393939394,172.3125,408.6363636363636,164.525C435.8787878787879,156.7375,463.12121212121207,138.275,490.3636363636363,138.275C517.6060606060605,138.275,544.8484848484848,190.775,572.090909090909,190.775C599.3333333333333,190.775,626.5757575757575,188.85,653.8181818181818,185C681.060606060606,181.15,708.3030303030303,106.77499999999999,735.5454545454545,106.77499999999999C762.7878787878788,106.77499999999999,790.030303030303,106.77499999999999,817.2727272727273,106.77499999999999C844.5151515151515,106.77499999999999,871.7575757575758,161.9,899,217.025L899,290C871.7575757575758,290,844.5151515151515,290,817.2727272727273,290C790.030303030303,290,762.7878787878788,290,735.5454545454545,290C708.3030303030303,290,681.060606060606,290,653.8181818181818,290C626.5757575757575,290,599.3333333333333,290,572.090909090909,290C544.8484848484848,290,517.6060606060605,290,490.3636363636363,290C463.12121212121207,290,435.8787878787879,290,408.6363636363636,290C381.3939393939394,290,354.1515151515151,290,326.9090909090909,290C299.66666666666663,290,272.4242424242424,290,245.18181818181813,290C217.93939393939388,290,190.69696969696966,290,163.4545454545454,290C136.21212121212116,290,108.96969696969693,290,81.72727272727268,290C54.48484848484843,290,27.24242424242419,290,-5.684341886080802e-14,290Z"></path><path stroke="var(--alternate)" stroke-width="2" fill-opacity="1" fill="none" width="899" height="315" class="recharts-curve recharts-area-curve" d="M-5.684341886080802e-14,80C27.24242424242419,106.25,54.48484848484843,132.5,81.72727272727268,132.5C108.96969696969693,132.5,136.21212121212116,39.05000000000001,163.4545454545454,39.05000000000001C190.69696969696966,39.05000000000001,217.93939393939388,119.72499999999998,245.18181818181813,144.04999999999998C272.4242424242424,168.375,299.66666666666663,185,326.9090909090909,185C354.1515151515151,185,381.3939393939394,172.3125,408.6363636363636,164.525C435.8787878787879,156.7375,463.12121212121207,138.275,490.3636363636363,138.275C517.6060606060605,138.275,544.8484848484848,190.775,572.090909090909,190.775C599.3333333333333,190.775,626.5757575757575,188.85,653.8181818181818,185C681.060606060606,181.15,708.3030303030303,106.77499999999999,735.5454545454545,106.77499999999999C762.7878787878788,106.77499999999999,790.030303030303,106.77499999999999,817.2727272727273,106.77499999999999C844.5151515151515,106.77499999999999,871.7575757575758,161.9,899,217.025"></path></g></g></g></g></svg>