<svg class="recharts-surface" width="899" height="330" viewBox="0 0 899 330" version="1.1" xmlns="http://www.w3.org/2000/svg"><defs><clipPath id="recharts21-clip"><rect x="0" y="-25" height="355" width="899"></rect></clipPath></defs><defs><linearGradient id="colorPv2" x1="0" y1="0" x2="0" y2="1"><stop offset="10%" stop-color="var(--warning)" stop-opacity="0.7"></stop><stop offset="90%" stop-color="var(--warning)" stop-opacity="0"></stop></linearGradient></defs><g class="recharts-layer recharts-area"><g class="recharts-layer"><defs><clipPath id="animationClipPath-recharts-area-22"><rect x="-5.684341886080802e-14" y="0" width="899" height="332"></rect></clipPath></defs><g class="recharts-layer" clip-path="url(#animationClipPath-recharts-area-22)"><g class="recharts-layer"><path stroke="none" stroke-width="2" fill-opacity="1" fill="url(#colorPv2)" width="899" height="355" class="recharts-curve recharts-area-area" d="M-5.684341886080802e-14,93.33333333333334C27.24242424242419,113.05555555555556,54.48484848484843,132.77777777777777,81.72727272727268,152.5C108.96969696969693,172.22222222222223,136.21212121212116,211.66666666666669,163.4545454545454,211.66666666666669C190.69696969696966,211.66666666666669,217.93939393939388,165.51666666666665,245.18181818181813,165.51666666666665C272.4242424242424,165.51666666666665,299.66666666666663,218.175,326.9090909090909,218.175C354.1515151515151,218.175,381.3939393939394,204.36944444444447,408.6363636363636,188.59166666666667C435.8787878787879,172.8138888888889,463.12121212121207,123.50833333333334,490.3636363636363,123.50833333333334C517.6060606060605,123.50833333333334,544.8484848484848,211.66666666666669,572.090909090909,211.66666666666669C599.3333333333333,211.66666666666669,626.5757575757575,47.183333333333344,653.8181818181818,47.183333333333344C681.060606060606,47.183333333333344,708.3030303030303,125.57916666666665,735.5454545454545,159.00833333333333C762.7878787878788,192.4375,790.030303030303,247.75833333333333,817.2727272727273,247.75833333333333C844.5151515151515,247.75833333333333,871.7575757575758,185.63333333333333,899,123.50833333333334L899,330C871.7575757575758,330,844.5151515151515,330,817.2727272727273,330C790.030303030303,330,762.7878787878788,330,735.5454545454545,330C708.3030303030303,330,681.060606060606,330,653.8181818181818,330C626.5757575757575,330,599.3333333333333,330,572.090909090909,330C544.8484848484848,330,517.6060606060605,330,490.3636363636363,330C463.12121212121207,330,435.8787878787879,330,408.6363636363636,330C381.3939393939394,330,354.1515151515151,330,326.9090909090909,330C299.66666666666663,330,272.4242424242424,330,245.18181818181813,330C217.93939393939388,330,190.69696969696966,330,163.4545454545454,330C136.21212121212116,330,108.96969696969693,330,81.72727272727268,330C54.48484848484843,330,27.24242424242419,330,-5.684341886080802e-14,330Z"></path><path stroke="var(--warning)" stroke-width="2" fill-opacity="1" fill="none" width="899" height="355" class="recharts-curve recharts-area-curve" d="M-5.684341886080802e-14,93.33333333333334C27.24242424242419,113.05555555555556,54.48484848484843,132.77777777777777,81.72727272727268,152.5C108.96969696969693,172.22222222222223,136.21212121212116,211.66666666666669,163.4545454545454,211.66666666666669C190.69696969696966,211.66666666666669,217.93939393939388,165.51666666666665,245.18181818181813,165.51666666666665C272.4242424242424,165.51666666666665,299.66666666666663,218.175,326.9090909090909,218.175C354.1515151515151,218.175,381.3939393939394,204.36944444444447,408.6363636363636,188.59166666666667C435.8787878787879,172.8138888888889,463.12121212121207,123.50833333333334,490.3636363636363,123.50833333333334C517.6060606060605,123.50833333333334,544.8484848484848,211.66666666666669,572.090909090909,211.66666666666669C599.3333333333333,211.66666666666669,626.5757575757575,47.183333333333344,653.8181818181818,47.183333333333344C681.060606060606,47.183333333333344,708.3030303030303,125.57916666666665,735.5454545454545,159.00833333333333C762.7878787878788,192.4375,790.030303030303,247.75833333333333,817.2727272727273,247.75833333333333C844.5151515151515,247.75833333333333,871.7575757575758,185.63333333333333,899,123.50833333333334"></path></g></g></g></g></svg>