<svg class="recharts-surface" width="469" height="131" viewBox="0 0 469 131" version="1.1" xmlns="http://www.w3.org/2000/svg"><defs><clipPath id="recharts29-clip"><rect x="0" y="-20" height="151" width="469"></rect></clipPath></defs><g class="recharts-layer recharts-area"><g class="recharts-layer"><defs><clipPath id="animationClipPath-recharts-area-30"><rect x="2.842170943040401e-14" y="0" width="469" height="134"></rect></clipPath></defs><g class="recharts-layer" clip-path="url(#animationClipPath-recharts-area-30)"><g class="recharts-layer"><path stroke="none" stroke-width="3" fill="var(--success)" fill-opacity=".1" width="469" height="151" class="recharts-curve recharts-area-area" d="M2.842170943040401e-14,80.66666666666667C14.21212121212124,78.88402777777779,28.42424242424245,77.10138888888889,42.63636363636366,70.85166666666667C56.84848484848487,64.60194444444446,71.06060606060609,53.19305555555556,85.2727272727273,43.16833333333334C99.48484848484851,33.14361111111111,113.69696969696972,10.703333333333337,127.90909090909093,10.703333333333337C142.12121212121215,10.703333333333337,156.33333333333334,17.24666666666667,170.54545454545456,30.33333333333334C184.75757575757578,43.42000000000001,198.96969696969697,96.01833333333335,213.1818181818182,96.01833333333335C227.3939393939394,96.01833333333335,241.60606060606062,55.5,255.81818181818184,55.5C270.03030303030306,55.5,284.24242424242425,58.26833333333334,298.4545454545455,58.26833333333334C312.6666666666667,58.26833333333334,326.87878787878793,43.16833333333334,341.0909090909091,43.16833333333334C355.3030303030303,43.16833333333334,369.51515151515156,54.325555555555546,383.72727272727275,61.03666666666666C397.93939393939394,67.74777777777777,412.1515151515152,83.43500000000002,426.3636363636364,83.43500000000002C440.57575757575756,83.43500000000002,454.7878787878788,82.05083333333334,469,80.66666666666667L469,131C454.7878787878788,131,440.57575757575756,131,426.3636363636364,131C412.1515151515152,131,397.93939393939394,131,383.72727272727275,131C369.51515151515156,131,355.3030303030303,131,341.0909090909091,131C326.87878787878793,131,312.6666666666667,131,298.4545454545455,131C284.24242424242425,131,270.03030303030306,131,255.81818181818184,131C241.60606060606062,131,227.3939393939394,131,213.1818181818182,131C198.96969696969697,131,184.75757575757578,131,170.54545454545456,131C156.33333333333334,131,142.12121212121215,131,127.90909090909093,131C113.69696969696972,131,99.48484848484851,131,85.2727272727273,131C71.06060606060609,131,56.84848484848487,131,42.63636363636366,131C28.42424242424245,131,14.21212121212124,131,2.842170943040401e-14,131Z"></path><path stroke="var(--success)" stroke-width="3" fill="none" fill-opacity=".1" width="469" height="151" class="recharts-curve recharts-area-curve" d="M2.842170943040401e-14,80.66666666666667C14.21212121212124,78.88402777777779,28.42424242424245,77.10138888888889,42.63636363636366,70.85166666666667C56.84848484848487,64.60194444444446,71.06060606060609,53.19305555555556,85.2727272727273,43.16833333333334C99.48484848484851,33.14361111111111,113.69696969696972,10.703333333333337,127.90909090909093,10.703333333333337C142.12121212121215,10.703333333333337,156.33333333333334,17.24666666666667,170.54545454545456,30.33333333333334C184.75757575757578,43.42000000000001,198.96969696969697,96.01833333333335,213.1818181818182,96.01833333333335C227.3939393939394,96.01833333333335,241.60606060606062,55.5,255.81818181818184,55.5C270.03030303030306,55.5,284.24242424242425,58.26833333333334,298.4545454545455,58.26833333333334C312.6666666666667,58.26833333333334,326.87878787878793,43.16833333333334,341.0909090909091,43.16833333333334C355.3030303030303,43.16833333333334,369.51515151515156,54.325555555555546,383.72727272727275,61.03666666666666C397.93939393939394,67.74777777777777,412.1515151515152,83.43500000000002,426.3636363636364,83.43500000000002C440.57575757575756,83.43500000000002,454.7878787878788,82.05083333333334,469,80.66666666666667"></path></g></g></g></g></svg>