<svg class="recharts-surface" width="469" height="131" viewBox="0 0 469 131" version="1.1" xmlns="http://www.w3.org/2000/svg"><defs><clipPath id="recharts35-clip"><rect x="0" y="-20" height="151" width="469"></rect></clipPath></defs><g class="recharts-layer recharts-area"><g class="recharts-layer"><defs><clipPath id="animationClipPath-recharts-area-36"><rect x="2.842170943040401e-14" y="0" width="469" height="134"></rect></clipPath></defs><g class="recharts-layer" clip-path="url(#animationClipPath-recharts-area-36)"><g class="recharts-layer"><path stroke="none" stroke-width="3" fill="rgba(255,255,255,.1)" fill-opacity="0.6" width="469" height="151" class="recharts-curve recharts-area-area" d="M2.842170943040401e-14,30.33333333333334C14.21212121212124,38.72222222222223,28.42424242424245,47.111111111111114,42.63636363636366,55.5C56.84848484848487,63.888888888888886,71.06060606060609,80.66666666666667,85.2727272727273,80.66666666666667C99.48484848484851,80.66666666666667,113.69696969696972,61.03666666666666,127.90909090909093,61.03666666666666C142.12121212121215,61.03666666666666,156.33333333333334,83.43500000000002,170.54545454545456,83.43500000000002C184.75757575757578,83.43500000000002,198.96969696969697,77.56277777777778,213.1818181818182,70.85166666666667C227.3939393939394,64.14055555555557,241.60606060606062,43.16833333333334,255.81818181818184,43.16833333333334C270.03030303030306,43.16833333333334,284.24242424242425,80.66666666666667,298.4545454545455,80.66666666666667C312.6666666666667,80.66666666666667,326.87878787878793,10.703333333333337,341.0909090909091,10.703333333333337C355.3030303030303,10.703333333333337,369.51515151515156,44.04916666666667,383.72727272727275,58.26833333333334C397.93939393939394,72.4875,412.1515151515152,96.01833333333335,426.3636363636364,96.01833333333335C440.57575757575756,96.01833333333335,454.7878787878788,69.59333333333333,469,43.16833333333334L469,131C454.7878787878788,131,440.57575757575756,131,426.3636363636364,131C412.1515151515152,131,397.93939393939394,131,383.72727272727275,131C369.51515151515156,131,355.3030303030303,131,341.0909090909091,131C326.87878787878793,131,312.6666666666667,131,298.4545454545455,131C284.24242424242425,131,270.03030303030306,131,255.81818181818184,131C241.60606060606062,131,227.3939393939394,131,213.1818181818182,131C198.96969696969697,131,184.75757575757578,131,170.54545454545456,131C156.33333333333334,131,142.12121212121215,131,127.90909090909093,131C113.69696969696972,131,99.48484848484851,131,85.2727272727273,131C71.06060606060609,131,56.84848484848487,131,42.63636363636366,131C28.42424242424245,131,14.21212121212124,131,2.842170943040401e-14,131Z"></path><path stroke="rgba(255,255,255,.3)" stroke-width="3" fill="none" fill-opacity="0.6" width="469" height="151" class="recharts-curve recharts-area-curve" d="M2.842170943040401e-14,30.33333333333334C14.21212121212124,38.72222222222223,28.42424242424245,47.111111111111114,42.63636363636366,55.5C56.84848484848487,63.888888888888886,71.06060606060609,80.66666666666667,85.2727272727273,80.66666666666667C99.48484848484851,80.66666666666667,113.69696969696972,61.03666666666666,127.90909090909093,61.03666666666666C142.12121212121215,61.03666666666666,156.33333333333334,83.43500000000002,170.54545454545456,83.43500000000002C184.75757575757578,83.43500000000002,198.96969696969697,77.56277777777778,213.1818181818182,70.85166666666667C227.3939393939394,64.14055555555557,241.60606060606062,43.16833333333334,255.81818181818184,43.16833333333334C270.03030303030306,43.16833333333334,284.24242424242425,80.66666666666667,298.4545454545455,80.66666666666667C312.6666666666667,80.66666666666667,326.87878787878793,10.703333333333337,341.0909090909091,10.703333333333337C355.3030303030303,10.703333333333337,369.51515151515156,44.04916666666667,383.72727272727275,58.26833333333334C397.93939393939394,72.4875,412.1515151515152,96.01833333333335,426.3636363636364,96.01833333333335C440.57575757575756,96.01833333333335,454.7878787878788,69.59333333333333,469,43.16833333333334"></path></g></g></g></g></svg>